<svg viewBox="0 0 64 64" xmlns="http://www.w3.org/2000/svg"><path d="m15.8 52.1c-6.8-4.4-9.5-21.5-7.3-29.2 1.6-5.8 7.8-14.3 13.4-16.5 4.7-1.9 15.5-1.9 20.1 0 5.6 2.2 11.8 10.7 13.4 16.5 2.2 7.8.5 24.8-6.2 29.2-14.2 9.2-19.2 9.2-33.4 0" fill="#f5d1ac"/><path d="m5.1 24.7c3.6 7.9 4.5 8.2 7.9-1.2 1.8-5 .5-8 2.7-11.2 1.2-1.8 3.9-4.8 3.9-4.8s-21.3 2.2-14.5 17.2" fill="#423223"/><path d="m14.2 7.2c-5.4 3.5-16.9 2.1-10.1 17 3.6 7.9 4.5 8.2 7.9-1.2 1.8-5 .5-8 2.7-11.2 1.2-1.8 4.9-4.3 4.9-4.3s-1.7-2.7-5.4-.3" fill="#947151"/><path d="m58.9 24.6c-3.6 7.9-4.5 8.2-7.9-1.2-1.8-5-.5-8-2.7-11.2-1.2-1.8-3.9-4.8-3.9-4.8s21.3 2.3 14.5 17.2" fill="#423223"/><path d="m49.8 7.2c5.4 3.5 16.9 2.1 10.1 17-3.6 7.9-4.5 8.2-7.9-1.2-1.8-5-.5-8-2.7-11.2-1.2-1.8-4.9-4.3-4.9-4.3s1.7-2.7 5.4-.3" fill="#947151"/><ellipse cx="17.7" cy="30.7" fill="#fff" rx="6" ry="6"/><ellipse cx="16.2" cy="30.7" fill="#3e4347" rx="4.5" ry="4.5"/><ellipse cx="46.3" cy="30.7" fill="#fff" rx="6" ry="6"/><ellipse cx="47.8" cy="30.7" fill="#3e4347" rx="4.5" ry="4.5"/><path d="m21.7 48.8 4.6 4.9c2.8 2.9 8.5 2.9 11.3 0l4.7-4.9-4.8-5h-11z" fill="#7d644b"/><path d="m32 39.6s-4.9 7-4.3 10.3c.8 4.8 7.7 4.8 8.6 0 .6-3.3-4.3-10.3-4.3-10.3" fill="#f15a61"/><path d="m32 51.7 1.1-6.7h-2.2z" fill="#ba454b"/><path d="m27 41.5h10v4.6h-10z" fill="#423223"/><path d="m47.8 42.6-7.1-7.5c-4.3-4.5-13.1-4.5-17.4 0l-7.1 7.5c-2 2.1-2 5.6 0 7.7s5.3 2.1 7.3 0l7.1-7.5c.7-.7 2-.7 2.7 0l7.1 7.5c2 2.1 5.3 2.1 7.3 0 2.2-2.1 2.2-5.6.1-7.7" fill="#947151"/><path d="m26.1 35.7c0-2.6 2.6-3.1 5.9-3.1s5.9.5 5.9 3.1c0 2.1-4.7 3.9-5.9 3.9s-5.9-1.9-5.9-3.9m-2.79 3.312.989-.992.991.989-.989.991zm-2.363 2.799.989-.991.99.989-.988.99zm3.178.952.989-.991.991.988-.988.992zm14.578-3.775.992-.988.988.991-.991.989zm2.425 2.774.992-.989.988.991-.991.989zm-3.181 1.049.991-.988.989.99-.991.99z" fill="#3e4347"/></svg>